PathFileType	4	(X/Y/Z)	G:\GRF\jawan data\CompiledGRF\03. Mohit Kumar\0231~ac~Walking 02_markers.trc
DataRate	CameraRate	NumFrames	NumMarkers	Units	OrigDataRate	OrigDataStartFrame	OrigNumFrames
100.000000	100.000000	11	18	mm	100.000000	668	891
Frame#	Time	c7			r should			l should			sacrum			r asis			r bar 1			r knee 1			r bar 2			r mall			r heel			r met			l asis			l bar 1			l knee 1			l bar 2			l mall			l heel			l met			
		X1	Y1	Z1	X2	Y2	Z2	X3	Y3	Z3	X4	Y4	Z4	X5	Y5	Z5	X6	Y6	Z6	X7	Y7	Z7	X8	Y8	Z8	X9	Y9	Z9	X10	Y10	Z10	X11	Y11	Z11	X12	Y12	Z12	X13	Y13	Z13	X14	Y14	Z14	X15	Y15	Z15	X16	Y16	Z16	X17	Y17	Z17	X18	Y18	Z18	

669	6.68	nan	nan	nan	-1221.328979492188	1466.754760742188	50.89154815673828	-1167.106689453125	1460.788208007813	386.4128112792969	-1093.463256835938	1044.110717773438	223.8306884765625	-1274.359252929688	1017.004943847656	89.73599243164063	-1161.031494140625	612.2449340820313	16.26562309265137	-1171.397216796875	522.4150390625	54.78396606445313	-949.1103515625	284.0994262695313	23.64472579956055	-885.019287109375	162.978515625	78.00039672851563	-825.2764892578125	170.4136199951172	127.3271713256836	-971.9508056640625	44.93413162231445	91.16342926025391	-1286.085571289063	1034.509155273438	338.8435974121094	-1322.254516601563	611.1724243164063	409.0179138183594	-1355.752563476563	532.7484741210938	350.78955078125	-1328.95361328125	250.6867370605469	398.5877380371094	-1329.941650390625	79.91917419433594	329.9859924316406	nan	nan	nan	-1473.233520507813	48.7022705078125	306.3580932617188	
670	6.69	nan	nan	nan	-1229.413452148438	1468.318969726563	52.99269866943359	-1175.675903320313	1462.13232421875	388.6372375488281	-1102.546752929688	1045.154296875	226.0636901855469	-1283.016845703125	1017.721557617188	91.96405792236328	-1174.651245117188	611.5135498046875	16.06877517700195	-1186.952270507813	521.961669921875	53.66706085205078	-960.72314453125	288.7852783203125	24.37929534912109	-894.6640625	168.8876647949219	79.33533477783203	-837.119873046875	179.2142944335938	129.1979370117188	-974.7801513671875	46.15793228149414	92.37015533447266	-1295.224609375	1035.439086914063	341.0135192871094	-1326.734130859375	611.12060546875	410.6234436035156	-1359.215698242188	532.2066040039063	352.231201171875	-1330.705200195313	250.1172485351563	399.1881408691406	-1330.061157226563	79.78603363037109	330.1692504882813	nan	nan	nan	-1473.573486328125	48.36208724975586	306.541748046875	
671	6.7	nan	nan	nan	-1237.310668945313	1469.712280273438	55.00757598876953	-1184.43115234375	1463.394653320313	390.7930908203125	-1111.104248046875	1046.142333984375	228.0460815429688	-1291.442749023438	1018.266540527344	94.04744720458984	-1189.002197265625	610.8590087890625	15.86157035827637	-1203.148315429688	521.7828369140625	52.9431037902832	-973.8471069335938	293.3351745605469	25.01358413696289	-906.5178833007813	175.0151062011719	79.76246643066406	-845.3569946289063	185.0701599121094	130.3260498046875	-978.3034057617188	48.24810409545898	93.47785949707031	-1304.20166015625	1036.303588867188	343.0743103027344	-1331.15869140625	611.1688842773438	412.298095703125	-1362.545043945313	531.7713623046875	353.689453125	-1331.641723632813	249.2505035400391	400.005126953125	-1330.130493164063	79.64436340332031	330.2731018066406	nan	nan	nan	-1473.863525390625	47.92097854614258	306.8755187988281	
672	6.71	nan	nan	nan	-1245.064331054688	1470.878662109375	56.91361999511719	-1193.18603515625	1464.511352539063	392.8803405761719	-1118.954833984375	1047.064208984375	229.7976379394531	-1299.681518554688	1018.729187011719	96.00493621826172	-1203.706298828125	610.158935546875	15.87478446960449	-1219.694702148438	521.8141479492188	52.65913391113281	-987.0413818359375	297.4017944335938	25.83312225341797	-917.8079833984375	180.9154968261719	80.55369567871094	nan	nan	nan	-983.5980224609375	51.40500640869141	93.91848754882813	-1312.925048828125	1037.044677734375	345.0310974121094	-1335.458251953125	611.1109619140625	413.7901916503906	-1365.754760742188	531.3667602539063	354.9632263183594	-1332.495483398438	248.5743255615234	400.6964721679688	-1330.227416992188	79.48638153076172	330.33642578125	nan	nan	nan	-1474.184204101563	47.57139587402344	307.1723327636719	
673	6.72	nan	nan	nan	-1252.7041015625	1471.857543945313	58.69981384277344	-1202.1982421875	1465.546630859375	394.929931640625	-1127.671264648438	1048.182739257813	231.8906555175781	-1307.772827148438	1019.213684082031	97.86726379394531	-1218.51904296875	609.6727905273438	16.00777435302734	-1235.765258789063	521.6334228515625	52.38846588134766	-1000.652526855469	301.6539306640625	26.78348922729492	-929.8629760742188	186.9550933837891	81.75760650634766	nan	nan	nan	-992.1333618164063	55.80472946166992	93.24602508544922	-1321.318359375	1037.624267578125	346.8989868164063	-1340.158081054688	611.1685791015625	415.0434265136719	-1368.873291015625	530.9042358398438	356.0560913085938	-1333.207397460938	248.0575561523438	401.2683715820313	-1330.445068359375	79.38597106933594	330.4065551757813	nan	nan	nan	-1474.482788085938	47.12508010864258	307.3222351074219	
674	6.73	nan	nan	nan	-1260.44775390625	1472.7099609375	60.41255569458008	-1211.263427734375	1466.42041015625	396.9335021972656	-1135.208129882813	1049.037719726563	233.6467895507813	-1315.813720703125	1019.809265136719	99.63810729980469	-1233.00537109375	609.2691650390625	16.29276084899902	-1252.0244140625	521.6771240234375	52.1298942565918	-1014.967895507813	306.047119140625	27.77992248535156	-941.5100708007813	192.5025024414063	83.56395721435547	nan	nan	nan	-1004.102111816406	61.06127166748047	91.69632720947266	-1329.486083984375	1038.10888671875	348.6754150390625	-1344.905395507813	611.1675415039063	416.12353515625	-1372.083129882813	530.5589599609375	357.0479736328125	-1333.875	247.6995544433594	401.7335510253906	-1330.723999023438	79.41155242919922	330.3723754882813	nan	nan	nan	-1474.748168945313	46.6086311340332	307.3015441894531	
675	6.74	nan	nan	nan	-1268.22509765625	1473.408813476563	62.08736419677734	-1220.421264648438	1467.181274414063	398.8374328613281	-1143.945678710938	1049.197631835938	235.4963836669922	-1323.697387695313	1020.49658203125	101.2950973510742	-1247.5712890625	609.3374633789063	16.91107368469238	-1268.973754882813	522.28125	51.95570755004883	-1029.944091796875	310.406982421875	29.19429206848145	-953.4693603515625	197.802490234375	86.24822998046875	nan	nan	nan	-1018.295288085938	66.64243316650391	90.16069030761719	-1337.494262695313	1038.541870117188	350.4444885253906	-1349.170288085938	610.8197021484375	417.2977600097656	-1375.240478515625	530.1861572265625	357.8645629882813	-1334.597534179688	247.5278930664063	402.160400390625	-1330.847534179688	79.38687133789063	330.2965698242188	nan	nan	nan	-1475.158081054688	46.13352584838867	307.3337097167969	
676	6.75	nan	nan	nan	-1275.974609375	1473.974731445313	63.64741897583008	-1229.843872070313	1467.916748046875	400.6884155273438	-1151.642211914063	1049.656127929688	237.1501007080078	-1331.5224609375	1021.381713867188	102.8914260864258	-1262.333251953125	609.9179077148438	17.69231414794922	-1285.858520507813	523.356201171875	52.05622100830078	-1045.0009765625	314.2899169921875	30.89716911315918	-968.0748901367188	202.9359436035156	88.30519866943359	nan	nan	nan	-1032.5810546875	71.38021850585938	88.90841674804688	-1345.220092773438	1038.9287109375	352.1571655273438	-1353.573852539063	610.660888671875	418.2845458984375	-1378.227172851563	529.7896728515625	358.6219482421875	-1335.404663085938	247.3876495361328	402.5430297851563	-1330.943359375	79.32631683349609	330.2293090820313	nan	nan	nan	-1475.57080078125	45.73171234130859	307.4807434082031	
677	6.76	nan	nan	nan	-1283.56494140625	1474.382202148438	65.10466766357422	-1239.168823242188	1468.61083984375	402.466796875	-1158.463623046875	1050.58154296875	238.4713439941406	-1339.402954101563	1022.524108886719	104.4894638061523	-1277.191162109375	611.0125732421875	18.45160675048828	-1302.846923828125	525.1347045898438	52.24804306030273	-1060.273681640625	317.5322265625	32.99581146240234	-983.9979248046875	207.2241821289063	90.30535888671875	nan	nan	nan	-1048.407104492188	75.79560852050781	87.43111419677734	-1352.722045898438	1039.288208007813	353.8966979980469	-1357.626342773438	610.49365234375	419.1585998535156	-1381.009765625	529.3681640625	359.38720703125	-1336.425048828125	247.1548919677734	402.8893432617188	-1331.029663085938	79.27763366699219	330.2218627929688	nan	nan	nan	-1476.008178710938	45.38372039794922	307.5855102539063	
678	6.77	nan	nan	nan	-1291.125244140625	1474.694946289063	66.560791015625	-1248.533325195313	1469.322998046875	404.1584167480469	-1166.532592773438	1051.006958007813	239.9769287109375	-1347.264038085938	1023.891662597656	106.1668243408203	-1292.623291015625	612.6264038085938	19.31766510009766	-1320.086059570313	527.5132446289063	52.48910903930664	-1075.775146484375	320.3432922363281	35.36824417114258	-999.7182006835938	210.3768920898438	92.97967529296875	-953.8734741210938	223.9539642333984	150.9579772949219	-1065.378784179688	79.70429992675781	85.89785003662109	-1360.142211914063	1039.674072265625	355.6650695800781	-1361.28515625	610.3917236328125	419.9349975585938	-1383.499633789063	528.9381103515625	360.1143798828125	-1337.365966796875	246.7464294433594	403.1751708984375	-1331.20166015625	79.30510711669922	330.2779235839844	nan	nan	nan	-1476.4091796875	45.18200302124023	307.7083740234375	
679	6.78	nan	nan	nan	-1298.59716796875	1474.944091796875	67.96726226806641	-1257.852294921875	1470.1044921875	405.7666320800781	-1174.153564453125	1051.742553710938	241.2282562255859	-1355.158203125	1025.50048828125	107.9287261962891	-1307.369018554688	613.9432983398438	20.07546615600586	-1337.268310546875	530.1529541015625	53.00992965698242	-1091.995727539063	322.8145751953125	37.32248687744141	-1016.475708007813	212.5741882324219	95.00347137451172	-965.8165893554688	224.3375549316406	154.5731201171875	-1083.524169921875	83.07646942138672	84.77506256103516	-1367.163452148438	1039.945678710938	357.5445861816406	-1364.43115234375	610.2583618164063	420.7074584960938	-1386.008422851563	528.5763549804688	360.7519226074219	-1338.554565429688	246.5779876708984	403.4415588378906	-1331.378540039063	79.31681060791016	330.2825012207031	nan	nan	nan	-1476.751953125	45.0452880859375	307.7329711914063	
